<svg width="864" height="587" viewBox="0 0 864 587" fill="none" xmlns="http://www.w3.org/2000/svg">
<path d="M2.57859 248.921H38.4586C59.5786 248.921 71.8186 253.721 71.8186 268.601C71.8186 280.121 64.6186 286.241 52.0186 288.281V288.521C67.1386 290.441 76.0186 296.801 76.0186 309.401C76.0186 328.001 60.4186 332.921 37.8586 332.921H2.57859V330.641H10.3786V251.201H2.57859V248.921ZM33.7786 290.441V330.641H39.4186C48.6586 330.641 51.2986 323.681 51.2986 312.641V306.281C51.2986 296.441 48.1786 290.441 36.5386 290.441H33.7786ZM33.7786 251.201V288.161H36.8986C45.5386 288.161 48.0586 282.641 48.0586 272.801V267.161C48.0586 255.641 46.0186 251.201 37.6186 251.201H33.7786ZM133.367 330.641L124.607 304.721H100.847L91.6073 330.641H100.607V332.921H82.2473V330.641H87.8873L118.487 248.201H128.327L158.567 330.641H164.087V332.921H124.847V330.641H133.367ZM113.207 270.641L101.927 302.081H123.647L113.207 270.641ZM210.208 290.441H203.848V330.641H211.648V332.921H172.648V330.641H180.448V251.201H172.648V248.921H208.888C233.968 248.921 245.968 251.561 245.968 269.081C245.968 283.721 238.288 288.041 225.568 289.121V289.481C238.528 291.161 242.968 296.201 242.968 310.121V316.481C242.968 324.281 243.328 327.041 246.688 327.041C248.848 327.041 250.648 326.081 252.208 316.721L254.248 316.961C252.448 330.641 249.088 334.121 237.928 334.121C222.808 334.121 218.368 329.081 218.368 312.161V303.401C218.368 294.881 216.688 290.441 210.208 290.441ZM203.848 251.201V288.161H207.688C216.568 288.161 221.128 283.241 221.128 270.281V266.801C221.128 253.361 216.208 251.201 207.808 251.201H203.848ZM265.266 248.921H301.146C322.266 248.921 334.506 253.721 334.506 268.601C334.506 280.121 327.306 286.241 314.706 288.281V288.521C329.826 290.441 338.706 296.801 338.706 309.401C338.706 328.001 323.106 332.921 300.546 332.921H265.266V330.641H273.066V251.201H265.266V248.921ZM296.466 290.441V330.641H302.106C311.346 330.641 313.986 323.681 313.986 312.641V306.281C313.986 296.441 310.866 290.441 299.226 290.441H296.466ZM296.466 251.201V288.161H299.586C308.226 288.161 310.746 282.641 310.746 272.801V267.161C310.746 255.641 308.706 251.201 300.306 251.201H296.466ZM350.368 248.921H412.768L413.968 272.681H411.808C405.208 256.961 399.568 251.561 385.048 251.561H380.848V288.641H384.928C392.728 288.641 397.768 282.041 399.808 272.921H401.608V308.441H399.568C396.688 296.441 392.128 291.761 383.728 291.761H380.848V330.281H385.408C400.648 330.281 411.208 319.841 414.808 306.761H417.208L416.248 332.921H350.368V330.281H357.448V251.561H350.368V248.921ZM468.09 290.441H461.73V330.641H469.53V332.921H430.53V330.641H438.33V251.201H430.53V248.921H466.77C491.85 248.921 503.85 251.561 503.85 269.081C503.85 283.721 496.17 288.041 483.45 289.121V289.481C496.41 291.161 500.85 296.201 500.85 310.121V316.481C500.85 324.281 501.21 327.041 504.57 327.041C506.73 327.041 508.53 326.081 510.09 316.721L512.13 316.961C510.33 330.641 506.97 334.121 495.81 334.121C480.69 334.121 476.25 329.081 476.25 312.161V303.401C476.25 294.881 474.57 290.441 468.09 290.441ZM461.73 251.201V288.161H465.57C474.45 288.161 479.01 283.241 479.01 270.281V266.801C479.01 253.361 474.09 251.201 465.69 251.201H461.73ZM557.285 331.601C564.485 331.601 572.525 327.761 572.525 319.001C572.525 309.041 565.085 305.801 550.325 301.601C535.805 297.521 524.765 291.761 524.765 273.641C524.765 260.201 534.725 247.601 553.205 247.601C564.245 247.601 570.485 251.321 574.565 251.321C576.605 251.321 577.205 250.481 578.045 248.921H579.365L580.205 273.161H578.285C572.165 262.121 564.005 250.121 551.645 250.121C543.005 250.121 537.005 255.161 537.005 262.241C537.005 271.121 545.165 274.121 557.285 277.361C570.605 280.961 585.365 285.521 585.365 305.441C585.365 322.721 573.605 334.121 555.965 334.121C544.325 334.121 534.245 330.521 530.885 330.521C528.965 330.521 528.245 331.841 527.285 334.121H525.605L524.405 305.561H526.445C532.445 317.561 544.085 331.601 557.285 331.601ZM598.758 248.921H636.198V251.201H629.238V288.401H653.118V251.201H646.038V248.921H683.598V251.201H676.518V330.641H683.598V332.921H646.038V330.641H653.118V291.521H629.238V330.641H636.198V332.921H598.758V330.641H605.838V251.201H598.758V248.921ZM752.241 295.841V286.961C752.241 262.361 751.521 250.121 737.121 250.121C722.601 250.121 721.641 262.841 721.641 287.441V296.081C721.641 318.641 723.081 331.601 737.121 331.601C750.561 331.601 752.241 319.961 752.241 295.841ZM697.041 292.241C697.041 264.641 711.321 247.601 738.081 247.601C763.881 247.601 776.961 263.441 776.961 290.681C776.961 317.441 764.361 334.121 736.641 334.121C709.881 334.121 697.041 318.641 697.041 292.241ZM789.687 248.921H824.967C847.527 248.921 860.847 253.961 860.847 272.801C860.847 293.201 845.127 298.481 821.847 298.481H820.887V330.641H835.887V332.921H789.687V330.641H797.487V251.201H789.687V248.921ZM820.887 251.201V296.201H823.407C833.487 296.201 836.127 289.241 836.127 275.321V269.561C836.127 256.001 833.247 251.201 824.127 251.201H820.887Z" fill="white"/>
<path d="M258.941 533.577H267.941V536.577H262.241V542.127H266.771V545.127H262.241V551.577H267.941V554.577H258.941V533.577ZM274.188 554.877C272.588 554.877 271.378 554.427 270.558 553.527C269.738 552.607 269.328 551.297 269.328 549.597V548.397H272.448V549.837C272.448 551.197 273.018 551.877 274.158 551.877C274.718 551.877 275.138 551.717 275.418 551.397C275.718 551.057 275.868 550.517 275.868 549.777C275.868 548.897 275.668 548.127 275.268 547.467C274.868 546.787 274.128 545.977 273.048 545.037C271.688 543.837 270.738 542.757 270.198 541.797C269.658 540.817 269.388 539.717 269.388 538.497C269.388 536.837 269.808 535.557 270.648 534.657C271.488 533.737 272.708 533.277 274.308 533.277C275.888 533.277 277.078 533.737 277.878 534.657C278.698 535.557 279.108 536.857 279.108 538.557V539.427H275.988V538.347C275.988 537.627 275.848 537.107 275.568 536.787C275.288 536.447 274.878 536.277 274.338 536.277C273.238 536.277 272.688 536.947 272.688 538.287C272.688 539.047 272.888 539.757 273.288 540.417C273.708 541.077 274.458 541.877 275.538 542.817C276.918 544.017 277.868 545.107 278.388 546.087C278.908 547.067 279.168 548.217 279.168 549.537C279.168 551.257 278.738 552.577 277.878 553.497C277.038 554.417 275.808 554.877 274.188 554.877ZM283.641 536.577H280.191V533.577H290.391V536.577H286.941V554.577H283.641V536.577ZM289.791 551.397H292.971V554.577H289.791V551.397Z" fill="#E9C664"/>
<path d="M604.099 552.297C604.099 550.797 604.339 549.517 604.819 548.457C605.299 547.377 606.159 546.187 607.399 544.887C608.619 543.587 609.459 542.477 609.919 541.557C610.399 540.637 610.639 539.677 610.639 538.677C610.639 537.777 610.489 537.157 610.189 536.817C609.909 536.457 609.489 536.277 608.929 536.277C607.789 536.277 607.219 536.967 607.219 538.347V540.597H604.099V538.557C604.099 536.857 604.519 535.557 605.359 534.657C606.199 533.737 607.419 533.277 609.019 533.277C610.619 533.277 611.839 533.737 612.679 534.657C613.519 535.557 613.939 536.857 613.939 538.557C613.939 539.837 613.629 541.087 613.009 542.307C612.409 543.527 611.359 544.927 609.859 546.507C608.879 547.547 608.219 548.397 607.879 549.057C607.539 549.697 607.369 550.387 607.369 551.127V551.577H613.639V554.577H604.099V552.297ZM620.941 554.877C619.321 554.877 618.081 554.417 617.221 553.497C616.361 552.577 615.931 551.277 615.931 549.597V538.557C615.931 536.877 616.361 535.577 617.221 534.657C618.081 533.737 619.321 533.277 620.941 533.277C622.561 533.277 623.801 533.737 624.661 534.657C625.521 535.577 625.951 536.877 625.951 538.557V549.597C625.951 551.277 625.521 552.577 624.661 553.497C623.801 554.417 622.561 554.877 620.941 554.877ZM620.941 551.877C622.081 551.877 622.651 551.187 622.651 549.807V538.347C622.651 536.967 622.081 536.277 620.941 536.277C619.801 536.277 619.231 536.967 619.231 538.347V549.807C619.231 551.187 619.801 551.877 620.941 551.877ZM628.123 552.297C628.123 550.797 628.363 549.517 628.843 548.457C629.323 547.377 630.183 546.187 631.423 544.887C632.643 543.587 633.483 542.477 633.943 541.557C634.423 540.637 634.663 539.677 634.663 538.677C634.663 537.777 634.513 537.157 634.213 536.817C633.933 536.457 633.513 536.277 632.953 536.277C631.813 536.277 631.243 536.967 631.243 538.347V540.597H628.123V538.557C628.123 536.857 628.543 535.557 629.383 534.657C630.223 533.737 631.443 533.277 633.043 533.277C634.643 533.277 635.863 533.737 636.703 534.657C637.543 535.557 637.963 536.857 637.963 538.557C637.963 539.837 637.653 541.087 637.033 542.307C636.433 543.527 635.383 544.927 633.883 546.507C632.903 547.547 632.243 548.397 631.903 549.057C631.563 549.697 631.393 550.387 631.393 551.127V551.577H637.663V554.577H628.123V552.297ZM645.714 550.767H639.414V547.767L645.414 533.577H649.014V547.767H650.574V550.767H649.014V554.577H645.714V550.767ZM645.714 547.767V539.577H645.654L642.414 547.767H645.714Z" fill="#E9C664"/>
<path d="M458.485 76.7522C459.885 76.7523 461.02 77.8863 461.02 79.2844C461.02 80.6825 459.885 81.8166 458.485 81.8167C457.086 81.8167 455.951 80.6826 455.951 79.2844C455.951 77.8862 457.086 76.7522 458.485 76.7522Z" fill="#BE9359" stroke="#E9C664"/>
<path d="M447.043 19.6483C447.045 15.6963 445.718 11.8583 443.277 8.74955C440.835 5.64079 437.42 3.44132 433.578 2.50371C429.737 1.56611 425.692 1.94469 422.091 3.57875C418.491 5.21281 415.543 8.00771 413.722 11.5154C411.9 15.0232 411.31 19.0405 412.045 22.9236C412.781 26.8066 414.799 30.3305 417.778 32.9302C420.756 35.5299 424.522 37.0549 428.471 37.2608C432.42 37.4667 436.323 36.3415 439.556 34.0656C441.869 32.4377 443.756 30.2783 445.059 27.7693C446.362 25.2603 447.042 22.4751 447.043 19.6483Z" stroke="#E9C664" stroke-width="4" stroke-linecap="round" stroke-linejoin="round"/>
<path d="M504.826 19.6512C504.825 16.1647 503.79 12.7568 501.851 9.85837C499.912 6.95995 497.156 4.70116 493.933 3.36756C490.71 2.03397 487.163 1.68544 483.742 2.36606C480.32 3.04669 477.177 4.72591 474.711 7.1914C472.244 9.65689 470.564 12.798 469.883 16.2175C469.203 19.637 469.552 23.1814 470.887 26.4027C472.221 29.6239 474.482 32.3773 477.382 34.3148C480.283 36.2523 483.693 37.2868 487.181 37.2876C489.499 37.2883 491.794 36.8325 493.935 35.9464C496.076 35.0603 498.022 33.7612 499.66 32.1234C501.299 30.4855 502.599 28.541 503.485 26.401C504.371 24.261 504.827 21.9674 504.826 19.6512V19.6512Z" stroke="#E9C664" stroke-width="4" stroke-linecap="round" stroke-linejoin="round"/>
<path d="M487.574 148.863C487.572 145.412 487.086 141.978 486.129 138.661L468.829 78.6546L462.77 57.6172C461.627 58.0093 460.426 58.2082 459.217 58.2059C458.907 58.2083 458.598 58.194 458.289 58.1629V58.1629C456.465 58.0052 454.707 57.4003 453.172 56.4018C451.637 55.4033 450.372 54.042 449.489 52.4384L439.374 34.1924C436.432 36.2142 432.945 37.2947 429.374 37.2905L447.749 78.6655L458.297 102.318L485.032 162.282C486.708 158.006 487.57 153.455 487.574 148.863V148.863Z" stroke="#E9C664" stroke-width="4" stroke-linecap="round" stroke-linejoin="round"/>
<path d="M489.452 37.1357C485.733 37.6224 481.955 36.9077 478.67 35.0959L462.777 57.6154L469.29 80.2287L489.452 37.1357Z" stroke="#E9C664" stroke-width="4" stroke-linecap="round" stroke-linejoin="round"/>
<path d="M458.45 102.646L447.75 78.6609L430.265 138.661C427.992 146.439 428.382 154.754 431.373 162.285L458.45 102.646Z" stroke="#E9C664" stroke-width="4" stroke-linecap="round" stroke-linejoin="round"/>
<path d="M357.238 81.7533L243.763 82.9814L245.258 170.903" stroke="#E9C664" stroke-opacity="0.913725" stroke-width="4.00058" stroke-linecap="round" stroke-linejoin="round"/>
<path d="M556.155 86.2402H669.624V174.162" stroke="#E9C664" stroke-opacity="0.913725" stroke-width="4" stroke-linecap="round" stroke-linejoin="round"/>
<path d="M245.649 391.548V489.974L460.24 584L670.91 489.974V391.548" stroke="#E9C664" stroke-opacity="0.913725" stroke-width="4" stroke-linecap="round"/>
<path d="M306.782 496.357V489.197H307.262C308.742 494.077 311.182 495.477 314.462 495.477C317.422 495.477 318.542 494.397 318.542 492.877C318.542 491.077 316.582 490.677 313.542 489.837C310.342 488.957 306.782 487.717 306.782 483.277C306.782 479.197 309.582 476.517 313.822 476.517C315.582 476.517 316.782 476.957 317.862 477.437C318.342 477.637 318.502 477.757 318.982 477.757C319.582 477.757 319.862 477.437 320.382 476.437H320.822V482.557H320.342C318.902 478.877 316.862 477.357 314.022 477.357C311.382 477.357 310.302 478.437 310.302 479.677C310.302 481.517 312.702 481.957 315.342 482.677C318.502 483.517 322.022 484.797 322.022 489.517C322.022 494.077 319.062 496.357 314.542 496.357C312.622 496.357 311.262 495.957 309.742 495.197C309.502 495.037 309.142 494.877 308.982 494.877C308.462 494.877 307.902 495.237 307.262 496.357H306.782ZM323.206 465.957H332.846V480.597C333.526 478.597 334.846 476.517 338.806 476.517C342.526 476.517 345.006 478.357 345.006 483.197V495.237H347.246V495.957H335.926V495.237H337.566V482.237C337.566 478.837 337.086 478.437 336.086 478.437C334.406 478.437 332.846 480.957 332.846 484.197V495.237H334.566V495.957H323.206V495.237H325.406V466.677H323.206V465.957ZM357.455 486.557H358.615V483.477C358.615 478.397 358.175 477.077 356.575 477.077C355.855 477.077 354.695 477.397 354.695 478.677C354.695 478.997 354.775 479.397 354.935 479.837H355.935C356.135 480.357 356.255 480.877 356.255 481.637C356.255 483.517 354.735 484.757 352.735 484.757C350.255 484.757 349.295 483.397 349.295 481.437C349.295 478.077 352.215 476.517 357.655 476.517C363.935 476.517 366.055 478.277 366.055 484.077V492.197C366.055 493.837 366.535 494.277 367.215 494.277C367.935 494.277 368.615 493.517 368.815 490.157L369.415 490.197C369.215 494.997 367.735 496.357 364.295 496.357C361.055 496.357 359.255 495.357 358.775 493.397C358.135 495.317 356.975 496.357 354.175 496.357C351.375 496.357 348.255 495.517 348.255 491.517C348.255 487.477 351.735 486.557 357.455 486.557ZM356.895 494.757C357.655 494.757 358.615 493.477 358.615 490.917V487.197H358.335C356.655 487.197 355.855 488.397 355.855 490.837V491.477C355.855 494.357 356.135 494.757 356.895 494.757ZM367.025 477.637V476.917H378.985V477.637H376.465L381.265 490.917L385.585 477.637H382.905V476.917H388.305V477.637H386.545L380.625 495.957H376.065L368.665 477.637H367.025ZM387.898 486.477C387.898 479.557 392.618 476.517 398.178 476.517C404.458 476.517 407.138 479.677 406.898 485.637H395.618V487.197C395.618 491.917 396.458 495.117 400.338 495.117C403.298 495.117 405.298 493.237 406.178 490.157L406.898 490.277C405.978 493.717 403.898 496.357 398.218 496.357C391.098 496.357 387.898 492.277 387.898 486.477ZM395.658 484.837H399.778V482.877C399.778 478.677 399.458 477.277 397.818 477.277C396.418 477.277 395.658 478.637 395.658 482.877V484.837ZM408.853 496.357V489.197H409.333C410.813 494.077 413.253 495.477 416.533 495.477C419.493 495.477 420.613 494.397 420.613 492.877C420.613 491.077 418.653 490.677 415.613 489.837C412.413 488.957 408.853 487.717 408.853 483.277C408.853 479.197 411.653 476.517 415.893 476.517C417.653 476.517 418.853 476.957 419.933 477.437C420.413 477.637 420.573 477.757 421.053 477.757C421.653 477.757 421.933 477.437 422.453 476.437H422.893V482.557H422.413C420.973 478.877 418.933 477.357 416.093 477.357C413.453 477.357 412.373 478.437 412.373 479.677C412.373 481.517 414.773 481.957 417.413 482.677C420.573 483.517 424.093 484.797 424.093 489.517C424.093 494.077 421.133 496.357 416.613 496.357C414.693 496.357 413.333 495.957 411.813 495.197C411.573 495.037 411.213 494.877 411.053 494.877C410.533 494.877 409.973 495.237 409.333 496.357H408.853ZM452.664 504.997C455.384 504.997 456.744 501.917 456.744 498.557C456.744 496.077 455.784 494.437 454.624 492.877C452.944 494.797 450.464 496.357 446.104 496.357C439.744 496.357 434.664 494.357 434.664 488.877C434.664 485.477 436.264 483.197 440.944 482.157C438.704 480.117 437.424 478.077 437.424 475.237C437.424 469.757 441.944 467.517 446.624 467.517C452.224 467.517 454.624 469.717 454.624 472.837C454.624 475.597 452.584 477.797 448.184 479.317C449.064 479.917 450.104 480.597 451.304 481.357C453.424 482.717 455.584 484.077 457.384 485.797C457.824 483.757 458.024 481.797 458.064 479.957H454.904V479.157H461.864V479.957H459.064C459.024 482.237 458.824 484.477 458.304 486.717C460.224 488.837 461.784 490.917 461.784 494.837C461.784 500.557 457.024 505.957 451.824 505.957C448.344 505.957 446.344 504.437 446.344 501.917C446.344 499.917 447.744 498.557 449.664 498.557C451.704 498.557 452.864 499.557 452.864 501.437C452.864 501.837 452.784 502.317 452.624 502.877H451.224C450.824 504.077 451.064 504.997 452.664 504.997ZM447.224 495.317C450.504 495.317 452.584 493.837 453.944 492.037C452.624 490.637 451.184 489.477 448.784 487.877C445.864 485.957 443.384 484.397 441.504 482.757C441.104 483.597 440.904 484.997 440.904 487.757C440.904 493.437 443.144 495.317 447.224 495.317ZM442.824 472.437C442.824 474.917 443.824 476.317 447.464 478.837C449.944 477.517 449.984 475.717 449.984 473.077C449.984 469.877 448.784 468.357 446.504 468.357C444.824 468.357 442.824 469.197 442.824 472.437ZM474.542 490.237V477.637H472.342V476.917H474.542V471.757L481.982 469.917V476.917H487.182V477.637H481.982V491.117C481.982 493.477 482.342 494.757 483.742 494.757C485.662 494.757 486.862 492.997 487.222 490.277L487.902 490.357C487.542 493.477 486.222 496.357 481.342 496.357C477.382 496.357 474.542 495.197 474.542 490.237ZM501.644 478.037C499.724 478.037 497.924 480.917 497.924 484.517V495.237H500.764V495.957H488.284V495.237H490.484V477.637H488.284V476.917H497.924V480.757C498.644 477.917 500.884 476.517 503.284 476.517C505.644 476.517 507.524 477.757 507.524 480.797C507.524 483.077 506.324 484.597 504.164 484.597C501.484 484.597 500.204 482.917 501.044 480.077H502.484C503.284 478.437 502.484 478.037 501.644 478.037ZM510.049 470.437C510.049 468.477 511.129 466.717 514.129 466.717C516.609 466.717 518.089 467.957 518.089 470.397C518.089 472.517 516.929 474.157 514.049 474.157C510.809 474.157 510.049 472.117 510.049 470.437ZM507.929 476.917H517.729V495.237H519.969V495.957H508.089V495.237H510.289V477.637H507.929V476.917ZM520.784 476.917H530.424V480.597C531.064 478.597 532.384 476.517 536.064 476.517C538.904 476.517 541.024 477.757 541.704 480.837C542.344 478.837 543.984 476.517 547.584 476.517C551.064 476.517 553.464 478.357 553.464 483.197V495.237H555.704V495.957H544.624V495.237H546.024V482.237C546.024 478.837 545.584 478.437 544.864 478.437C543.424 478.437 541.944 480.597 541.944 483.957V495.237H543.384V495.957H533.104V495.237H534.504V482.237C534.504 478.837 534.064 478.437 533.344 478.437C531.864 478.437 530.424 480.957 530.424 484.197V495.237H531.864V495.957H520.784V495.237H522.984V477.637H520.784V476.917ZM557.212 496.357V489.197H557.692C559.172 494.077 561.612 495.477 564.892 495.477C567.852 495.477 568.972 494.397 568.972 492.877C568.972 491.077 567.012 490.677 563.972 489.837C560.772 488.957 557.212 487.717 557.212 483.277C557.212 479.197 560.012 476.517 564.252 476.517C566.012 476.517 567.212 476.957 568.292 477.437C568.772 477.637 568.932 477.757 569.412 477.757C570.012 477.757 570.292 477.437 570.812 476.437H571.252V482.557H570.772C569.332 478.877 567.292 477.357 564.452 477.357C561.812 477.357 560.732 478.437 560.732 479.677C560.732 481.517 563.132 481.957 565.772 482.677C568.932 483.517 572.452 484.797 572.452 489.517C572.452 494.077 569.492 496.357 564.972 496.357C563.052 496.357 561.692 495.957 560.172 495.197C559.932 495.037 559.572 494.877 559.412 494.877C558.892 494.877 558.332 495.237 557.692 496.357H557.212Z" fill="white"/>
<path d="M432.776 366.716C428.359 366.708 424.024 367.913 420.245 370.199C416.467 372.486 413.389 375.766 411.348 379.681C407.552 387.229 401.06 393.078 393.155 396.071C391.05 396.9 388.817 397.362 386.555 397.438C380.628 397.458 374.837 395.663 369.961 392.296C373.748 401.005 380.022 408.404 387.997 413.565C395.973 418.727 405.294 421.422 414.795 421.313C425.635 421.356 436.188 417.837 444.829 411.296C456.566 401.922 456.023 390.609 456.023 390.609C456.024 377.412 446.077 366.716 432.776 366.716Z" stroke="#E9C664" stroke-width="4" stroke-linecap="round" stroke-linejoin="round"/>
<path d="M525.347 397.432C523.085 397.358 520.853 396.896 518.747 396.066C510.845 393.075 504.354 387.228 500.557 379.682C498.517 375.767 495.439 372.487 491.66 370.201C487.881 367.914 483.547 366.709 479.129 366.717C465.829 366.717 455.881 377.411 455.881 390.603C455.881 390.603 455.334 401.913 467.075 411.29C475.717 417.83 486.27 421.349 497.109 421.307C506.61 421.415 515.931 418.72 523.905 413.559C531.88 408.398 538.154 401 541.941 392.292C537.066 395.659 531.274 397.453 525.347 397.432Z" stroke="#E9C664" stroke-width="4" stroke-linecap="round" stroke-linejoin="round"/>
</svg>
