<svg width="16" height="15" viewBox="0 0 16 15" fill="none" xmlns="http://www.w3.org/2000/svg">
<path d="M12.7496 0H3.09955C2.41277 0.00804456 1.75635 0.285788 1.27059 0.773872C0.784832 1.26196 0.508266 1.92166 0.5 2.612L0.5 12.388C0.523859 13.0662 0.80758 13.7088 1.29185 14.1816C1.77613 14.6544 2.42347 14.9208 3.09856 14.925H8.29568V9.625H6.81036V7.388H8.29568V5.97C8.29489 5.60695 8.3655 5.24731 8.50344 4.91178C8.64139 4.57625 8.84396 4.27143 9.09949 4.01485C9.35503 3.75827 9.6585 3.55499 9.99246 3.41669C10.3264 3.2784 10.6843 3.20781 11.0455 3.209H12.8272V5.448H11.0455C10.8904 5.4579 10.7442 5.5243 10.6343 5.63475C10.5244 5.74519 10.4584 5.89212 10.4485 6.048V7.463H12.3786V9.7H10.5232V14.924H12.8243C13.5107 14.9157 14.1667 14.638 14.6522 14.1501C15.1378 13.6623 15.4143 13.003 15.4228 12.313V2.613C15.3858 1.91938 15.0901 1.26525 14.5946 0.780982C14.0992 0.296714 13.4405 0.0178629 12.7496 0Z" fill="#E9C664"/>
</svg>
