<svg width="16" height="15" viewBox="0 0 16 15" fill="none" xmlns="http://www.w3.org/2000/svg">
<path d="M4.72271 15C3.62356 14.9989 2.56973 14.5596 1.79252 13.7783C1.0153 12.9971 0.578202 11.9378 0.577148 10.833L0.577148 4.167C0.578465 3.06225 1.01565 2.00312 1.79281 1.22195C2.56997 0.44077 3.62364 0.00132321 4.72271 0L11.3544 0C12.4535 0.00132321 13.5071 0.44077 14.2843 1.22195C15.0615 2.00312 15.4986 3.06225 15.5 4.167V10.834C15.4986 11.9387 15.0614 12.9977 14.2842 13.7787C13.5071 14.5597 12.4534 14.9989 11.3544 15H4.72271ZM3.893 7.5C3.8928 8.3242 4.13577 9.12994 4.59117 9.81533C5.04657 10.5007 5.69394 11.035 6.45143 11.3505C7.20891 11.6661 8.04248 11.7487 8.8467 11.5881C9.65093 11.4274 10.3897 11.0306 10.9696 10.4479C11.5494 9.86514 11.9443 9.12265 12.1044 8.31431C12.2644 7.50596 12.1824 6.66807 11.8686 5.90659C11.5549 5.14511 11.0236 4.49426 10.3418 4.03634C9.66005 3.57842 8.85851 3.334 8.03856 3.334C6.93966 3.33532 5.88614 3.77463 5.10901 4.55559C4.33188 5.33656 3.89458 6.39542 3.893 7.5ZM12.1841 2.5C12.1843 2.66467 12.2331 2.82558 12.3242 2.96241C12.4153 3.09925 12.5448 3.20586 12.6962 3.26878C12.8475 3.33171 13.0141 3.34812 13.1747 3.31594C13.3354 3.28377 13.483 3.20446 13.5988 3.08802C13.7147 2.97158 13.7936 2.82325 13.8256 2.66176C13.8576 2.50026 13.8412 2.33286 13.7786 2.18069C13.716 2.02852 13.61 1.89841 13.4739 1.8068C13.3377 1.7152 13.1776 1.6662 13.0138 1.666C12.7938 1.666 12.5827 1.75387 12.4271 1.91027C12.2715 2.06668 12.1841 2.27881 12.1841 2.5ZM5.55142 7.5C5.55142 7.00555 5.69729 6.5222 5.97058 6.11107C6.24387 5.69995 6.63231 5.37952 7.08677 5.1903C7.54123 5.00108 8.04131 4.95157 8.52377 5.04804C9.00623 5.1445 9.44939 5.3826 9.79722 5.73223C10.1451 6.08186 10.3819 6.52732 10.4779 7.01227C10.5739 7.49723 10.5246 7.99989 10.3364 8.45671C10.1481 8.91352 9.82934 9.30397 9.42033 9.57867C9.01133 9.85338 8.53046 10 8.03856 10C7.37893 10 6.74631 9.73661 6.27988 9.26777C5.81346 8.79893 5.55142 8.16304 5.55142 7.5Z" fill="#E9C664"/>
</svg>
