<svg width="16" height="13" viewBox="0 0 16 13" fill="none" xmlns="http://www.w3.org/2000/svg">
<path d="M15.6855 1.463C15.1283 1.71745 14.5348 1.88213 13.9266 1.951C14.5582 1.5586 15.0309 0.95375 15.2607 0.244004C14.6626 0.602974 14.0052 0.850919 13.3197 0.976004C13.0359 0.662586 12.689 0.413463 12.3021 0.245186C11.9151 0.0769093 11.4969 -0.00666905 11.0754 4.13021e-06C10.2716 0.00237843 9.50143 0.324374 8.93309 0.895658C8.36474 1.46694 8.04441 2.24109 8.04204 3.049C8.03205 3.29459 8.05244 3.54047 8.10273 3.781C6.88312 3.72383 5.68965 3.40599 4.60187 2.84868C3.51408 2.29137 2.55698 1.50739 1.79436 0.549004C1.52651 1.0347 1.38069 1.57879 1.36956 2.134C1.36645 2.63872 1.48643 3.13652 1.719 3.58384C1.95157 4.03117 2.28965 4.4144 2.70366 4.7C2.2342 4.64944 1.7801 4.5024 1.36956 4.268V4.329C1.37268 5.04704 1.62164 5.74211 2.07457 6.29737C2.52751 6.85262 3.15681 7.23422 3.85669 7.378C3.59912 7.44835 3.33447 7.48927 3.06777 7.5C2.86368 7.50714 2.65956 7.48662 2.46091 7.439C2.64832 8.05344 3.02591 8.59173 3.53872 8.97554C4.05154 9.35936 4.67282 9.56866 5.31216 9.573C4.23279 10.454 2.88129 10.9287 1.49093 10.915C1.24661 10.925 1.00199 10.9046 0.762695 10.854C2.16354 11.7376 3.78471 12.2043 5.43851 12.2C6.5878 12.208 7.72721 11.9863 8.79055 11.5479C9.85389 11.1095 10.82 10.4631 11.6327 9.64618C12.4453 8.82929 13.0884 7.85822 13.5246 6.78938C13.9608 5.72054 14.1813 4.57524 14.1733 3.42V2.988C14.7779 2.59156 15.2931 2.07204 15.6855 1.463Z" fill="#E9C664"/>
</svg>
